<svg enable-background="new 0 0 24 24" height="512" viewBox="0 0 24 24" width="512" xmlns="http://www.w3.org/2000/svg"><path d="m14.729 2.756h-.688-10.083-.687c-1.392 0-2.521 1.131-2.521 2.526v11.483c0 1.395 1.129 2.526 2.521 2.526h12.146c1.013 0 1.833-.823 1.833-1.837v-7.808-4.364c0-1.395-1.129-2.526-2.521-2.526z" fill="#2196f3"/><path d="m11.28.428h-4.56c-.572 0-1.036.466-1.036 1.039v2.077c0 .573.465 1.039 1.036 1.039h4.56c.572 0 1.036-.466 1.036-1.039v-2.077c0-.573-.465-1.039-1.036-1.039z" fill="#1976d2"/><path d="m21.25 11.024h-6.5c-1.517 0-2.75 1.236-2.75 2.756v7.516c0 1.52 1.233 2.756 2.75 2.756h6.5c1.517 0 2.75-1.236 2.75-2.756v-7.516c0-1.52-1.233-2.756-2.75-2.756z" fill="#eceff1"/><path d="m9.25 20.042h-6.5c-1.517 0-2.75-1.236-2.75-2.754v-12.528c0-1.519 1.233-2.754 2.75-2.754h3c.414 0 .75.336.75.75s-.336.75-.75.75h-3c-.689 0-1.25.562-1.25 1.254v12.527c0 .692.561 1.254 1.25 1.254h6.5c.414 0 .75.336.75.75s-.336.751-.75.751z"/><path d="m17.25 9.018c-.414 0-.75-.336-.75-.75v-3.508c0-.692-.561-1.254-1.25-1.254h-3c-.414 0-.75-.336-.75-.75s.336-.75.75-.75h3c1.517 0 2.75 1.236 2.75 2.754v3.508c0 .414-.336.75-.75.75z"/><path d="m11.25 5.009h-4.5c-.965 0-1.75-.785-1.75-1.75v-1.508c0-.965.785-1.75 1.75-1.75h4.5c.965 0 1.75.785 1.75 1.75v1.508c0 .965-.785 1.75-1.75 1.75zm-4.5-3.508c-.138 0-.25.112-.25.25v1.508c0 .138.112.25.25.25h4.5c.138 0 .25-.112.25-.25v-1.508c0-.138-.112-.25-.25-.25z"/><path d="m21.25 24.051h-6.5c-1.517 0-2.75-1.234-2.75-2.75v-7.525c0-1.516 1.233-2.75 2.75-2.75h6.5c1.517 0 2.75 1.234 2.75 2.75v7.525c0 1.516-1.233 2.75-2.75 2.75zm-6.5-11.525c-.689 0-1.25.561-1.25 1.25v7.525c0 .689.561 1.25 1.25 1.25h6.5c.689 0 1.25-.561 1.25-1.25v-7.525c0-.689-.561-1.25-1.25-1.25z"/><path d="m20.25 15.282h-4.5c-.414 0-.75-.336-.75-.75s.336-.75.75-.75h4.5c.414 0 .75.336.75.75s-.336.75-.75.75z"/><path d="m20.25 18.288h-4.5c-.414 0-.75-.336-.75-.75s.336-.75.75-.75h4.5c.414 0 .75.336.75.75s-.336.75-.75.75z"/><path d="m20.25 21.295h-4.5c-.414 0-.75-.336-.75-.75s.336-.75.75-.75h4.5c.414 0 .75.336.75.75s-.336.75-.75.75z"/></svg>